<?xml version="1.0" encoding="UTF-8"?><svg id="logo" xmlns="http://www.w3.org/2000/svg" viewBox="0 0 576 576"><defs><style>.cls-1{fill:none;}.cls-2{fill:#e6e7e8;}</style></defs><path class="cls-1" d="M363.72,228.38h-41.68v63.24h41.68c17.86,0,31.76-12.19,31.76-31.48s-13.9-31.76-31.76-31.76Z"/><polygon class="cls-2" points="115.04 401.26 115.04 241.16 72.85 241.16 72.85 443.45 432.99 443.38 395.7 401.26 115.04 401.26"/><path class="cls-2" d="M72.85,131.6v102.76l152.46-.03v82.49c0,15.23-9.14,24.62-23.6,24.62-17.26,0-23.61-13.2-24.37-27.16h-40.61c1.78,37.06,22.84,64.22,65.99,64.22,40.86,0,65.74-29.7,65.74-61.68v-119.55H115.04s0-23.48,0-23.48h348.06v221.51l42.19,44.7V131.6H72.85Z"/><path class="cls-1" d="M355.76,234.34h-37.31v56.6h37.31c15.99,0,28.43-10.91,28.43-28.17s-12.44-28.43-28.43-28.43Z"/><path class="cls-2" d="M461.93,401.26h-.02l-2.24-2.39-38.91-41.51-32-34.7c23.1-9.9,38.58-32.24,38.58-59.9,0-37.06-27.92-65.49-65.48-65.49h-86.55v177.67h43.15v-46.96h17.77l32.15,35.4h-.04s71.46,79.98,71.46,79.98h61.89s-39.74-42.12-39.74-42.12ZM355.76,290.94h-37.31v-56.6h37.31c15.99,0,28.43,11.17,28.43,28.43s-12.44,28.17-28.43,28.17Z"/></svg>